<mxfile host="www.draw.io" modified="2019-11-28T02:19:28.557Z" agent="Mozilla/5.0 (Windows NT 10.0; Win64; x64) AppleWebKit/537.36 (KHTML, like Gecko) Chrome/78.0.3904.108 Safari/537.36" etag="TKBNXjn8W0XAy9Od8ucK" version="12.3.2" type="github" pages="1">
  <diagram id="nUMtf-2zpoctz45y9G_X" name="第 1 页">
    <mxGraphModel dx="1422" dy="762" grid="1" gridSize="10" guides="1" tooltips="1" connect="1" arrows="1" fold="1" page="1" pageScale="1" pageWidth="827" pageHeight="1169" math="0" shadow="0">
      <root>
        <mxCell id="0"/>
        <mxCell id="1" parent="0"/>
        <mxCell id="8KSWJMgJR3njgmWDjKWr-1" value="0" style="rounded=0;whiteSpace=wrap;html=1;" vertex="1" parent="1">
          <mxGeometry x="30" y="260" width="120" height="60" as="geometry"/>
        </mxCell>
        <mxCell id="8KSWJMgJR3njgmWDjKWr-2" value="1" style="rounded=0;whiteSpace=wrap;html=1;" vertex="1" parent="1">
          <mxGeometry x="150" y="260" width="120" height="60" as="geometry"/>
        </mxCell>
        <mxCell id="8KSWJMgJR3njgmWDjKWr-3" value="2" style="rounded=0;whiteSpace=wrap;html=1;" vertex="1" parent="1">
          <mxGeometry x="270" y="260" width="120" height="60" as="geometry"/>
        </mxCell>
        <mxCell id="8KSWJMgJR3njgmWDjKWr-4" value="3" style="rounded=0;whiteSpace=wrap;html=1;" vertex="1" parent="1">
          <mxGeometry x="390" y="260" width="120" height="60" as="geometry"/>
        </mxCell>
        <mxCell id="8KSWJMgJR3njgmWDjKWr-5" value="4" style="rounded=0;whiteSpace=wrap;html=1;" vertex="1" parent="1">
          <mxGeometry x="510" y="260" width="120" height="60" as="geometry"/>
        </mxCell>
        <mxCell id="8KSWJMgJR3njgmWDjKWr-9" style="edgeStyle=orthogonalEdgeStyle;rounded=0;orthogonalLoop=1;jettySize=auto;html=1;entryX=0.25;entryY=0;entryDx=0;entryDy=0;" edge="1" parent="1" source="8KSWJMgJR3njgmWDjKWr-6" target="8KSWJMgJR3njgmWDjKWr-2">
          <mxGeometry relative="1" as="geometry"/>
        </mxCell>
        <mxCell id="8KSWJMgJR3njgmWDjKWr-6" value="position" style="rounded=0;whiteSpace=wrap;html=1;" vertex="1" parent="1">
          <mxGeometry x="120" y="175" width="80" height="30" as="geometry"/>
        </mxCell>
        <mxCell id="8KSWJMgJR3njgmWDjKWr-10" style="edgeStyle=orthogonalEdgeStyle;rounded=0;orthogonalLoop=1;jettySize=auto;html=1;entryX=0.75;entryY=0;entryDx=0;entryDy=0;" edge="1" parent="1" source="8KSWJMgJR3njgmWDjKWr-8" target="8KSWJMgJR3njgmWDjKWr-2">
          <mxGeometry relative="1" as="geometry"/>
        </mxCell>
        <mxCell id="8KSWJMgJR3njgmWDjKWr-8" value="mark" style="rounded=0;whiteSpace=wrap;html=1;" vertex="1" parent="1">
          <mxGeometry x="220" y="175" width="80" height="30" as="geometry"/>
        </mxCell>
        <mxCell id="8KSWJMgJR3njgmWDjKWr-14" style="edgeStyle=orthogonalEdgeStyle;rounded=0;orthogonalLoop=1;jettySize=auto;html=1;exitX=0.5;exitY=1;exitDx=0;exitDy=0;entryX=0.25;entryY=0;entryDx=0;entryDy=0;" edge="1" parent="1" source="8KSWJMgJR3njgmWDjKWr-11" target="8KSWJMgJR3njgmWDjKWr-12">
          <mxGeometry relative="1" as="geometry"/>
        </mxCell>
        <mxCell id="8KSWJMgJR3njgmWDjKWr-11" value="capaticy" style="rounded=0;whiteSpace=wrap;html=1;" vertex="1" parent="1">
          <mxGeometry x="590" y="180" width="80" height="30" as="geometry"/>
        </mxCell>
        <mxCell id="8KSWJMgJR3njgmWDjKWr-12" value="null" style="rounded=0;whiteSpace=wrap;html=1;dashed=1;" vertex="1" parent="1">
          <mxGeometry x="630" y="260" width="120" height="60" as="geometry"/>
        </mxCell>
        <mxCell id="8KSWJMgJR3njgmWDjKWr-15" style="edgeStyle=orthogonalEdgeStyle;rounded=0;orthogonalLoop=1;jettySize=auto;html=1;entryX=0.75;entryY=0;entryDx=0;entryDy=0;" edge="1" parent="1" source="8KSWJMgJR3njgmWDjKWr-13" target="8KSWJMgJR3njgmWDjKWr-12">
          <mxGeometry relative="1" as="geometry"/>
        </mxCell>
        <mxCell id="8KSWJMgJR3njgmWDjKWr-13" value="limit" style="rounded=0;whiteSpace=wrap;html=1;" vertex="1" parent="1">
          <mxGeometry x="700" y="180" width="80" height="30" as="geometry"/>
        </mxCell>
      </root>
    </mxGraphModel>
  </diagram>
</mxfile>
